<svg xmlns="http://www.w3.org/2000/svg" width="170" height="72" fill="none" viewBox="0 0 170 72">
  <g clip-path="url(#a)">
    <path fill="#FFF200" d="M170 0H0V72H170V0Z"/>
    <path fill="#000" d="M20.5 17.3 16.8 37.4H20.2L20.8 32.9H24.6L25.2 37.4H28.5L24.8 17.3H20.5ZM21.3 29.9 22.6 21.3H22.7L24.1 29.9H21.3ZM33.2 21.7H33.3L36.4 37.4H38.1L41.2 21.7H41.2V37.4H44.2V17.3H39.7L37.2 29H37.2L34.7 17.3H30.2V37.4H33.2V21.7ZM54.8 28.8H54.8L50.6 17.3H47.4V37.4H50.5V24.8H50.6L55 37.4H58V17.3H54.8V28.8ZM70.7 34.4H64.6V28.5H69V25.5H64.6V20.3H70.4V17.3H61.1V37.4H70.7V34.4ZM75.4 22C75.4 20.8 76 20 77.1 20 77.9 20 78.8 20.5 78.9 22.2L82.2 21.9C81.9 19.1 80.2 17 77.4 17 74 17 72.1 18.8 72.1 22 72.1 27.8 79.1 28.8 79.1 32.8 79.1 34 78.3 34.7 77.1 34.7 75.9 34.7 75.2 33.7 75 31.6L71.8 32.1C71.9 35.1 73.7 37.7 76.9 37.7 80.1 37.7 82.4 35.8 82.4 32.5 82.4 27.1 75.4 25.4 75.4 22M86.3 37.4H89.8V20.3H93.1V17.3H83V20.3H86.3V37.4ZM99.9 24.9H99.9L97.4 17.3H93.9L98.1 29V37.4H101.6V29L105.7 17.3H102.2L99.9 24.9ZM151.3 38.7C151.5 38.2 151.7 37.6 151.8 37.1 152 36.7 152.7 36.8 152.7 36.6 152.7 36.5 152.2 36.4 152 36.2 151.6 36 151.7 34.8 151.6 34.8 151.3 34.8 150.9 35.6 150.7 35.3 150.2 34.7 148 33.4 147 33 146.7 32.9 147.3 31.8 147.1 31.7 147 31.6 146.5 32.4 145.9 32.3 145.4 32.2 145.6 31.3 145.4 31.3 145.3 31.3 144.8 32.5 144.4 32.4 144 32.3 143.5 32.2 143.5 32.2V29C143.5 28.8 143.5 28.7 143.5 28.6 143.4 28.5 143.4 28.4 143.3 28.3 143.2 28.2 143.1 28.1 143 28.1 142.9 28 142.8 28 142.7 28H139.1C138.2 28 138.2 27.3 138.2 27.1 138.2 22.8 144.5 22.1 144.5 16.4 144.5 14 142.9 12.3 141.1 10.9 141 10.8 141.1 11.2 141.1 11.4 141.1 14 131.3 15.4 131.3 21.4 131.3 26.7 136.6 27 136.6 27.8 136.6 27.9 136.3 28 136.3 28H132.2C131.8 28 131.4 28.3 131.4 29V32.2C131.1 32.4 130.5 31.8 130.3 31.8 130.1 31.8 130.2 32.8 130 32.9 129.8 33 126.1 34.3 125.8 34.3 125.3 34.4 125.4 33.5 125.1 33.5 124.8 33.5 124.8 34.4 124.2 34.4 123.8 34.4 123.5 34.1 123.2 34.1 123 34.1 123.6 34.8 123.6 35.1 123.6 35.7 122.4 35.9 122.4 36.3 122.4 36.5 123.6 36.2 123.7 36.2 124.3 36.2 124.2 36.9 124.5 36.9 124.7 36.9 124.8 36.1 125 36 125.4 35.7 125.9 36.1 126.1 36.1 126.4 36.1 125.8 35.3 126.1 35.2 126.1 35.2 130 33.5 130.3 33.7 130.6 33.8 130.5 34.2 130.8 34.3 131 34.4 131.4 33.4 131.4 34V42C130.8 42.3 130.1 42.4 129.5 42.4 129.2 42.4 129.3 41.6 129.2 41.6 128.9 41.6 128.6 42.3 128.3 42.3 127.9 42.3 127.4 41.4 127 41.4 126.8 41.4 127.4 42.5 127.1 42.7 125.6 43.5 123.2 44.2 123.2 46.5 123.2 47 123.5 47.6 123.4 47.8 123.3 47.9 122.7 48.5 122.8 48.7 122.8 48.9 123.7 48.8 123.9 49.1 124 49.2 124.1 50 124.3 50 124.5 50 124.9 49.4 125.2 49.6 126.4 50.3 128.3 51 129.3 51.5 129.5 51.7 129.4 52.4 129.5 52.4 129.8 52.6 130.3 51.7 131.1 52.2 131.2 52.3 131.3 52.4 131.3 52.5 131.4 52.6 131.4 52.7 131.4 52.8V55.5C131.4 56 131.6 56.1 131.9 56.2L141.6 58.1C142 58.2 142.3 58.2 142.7 58.3 143.1 58.3 143.5 58.3 143.5 57.5V51.4C143.5 51.4 143.5 51.3 143.5 51.3 143.6 51.2 143.6 51.2 143.7 51.2 144.2 51.2 144 52.8 144.1 52.8 144.3 52.8 144.5 51.7 144.8 51.7 145.3 51.7 145.6 52.2 145.8 52.1 146 52 145.7 51.5 145.7 51.1 145.7 50.8 146.5 50.7 147.5 50.3 148.2 50 148.8 49.8 149.5 49.6 149.7 49.6 149.9 50.3 150.1 50.3 150.3 50.3 150.3 49.4 150.6 49.4 151 49.4 151.6 49.9 151.7 49.8 151.9 49.6 151.4 49.1 151.7 48.8 152 48.6 152.6 48.2 152.6 48.1 152.2 48 151.8 47.9 151.3 47.9 151.1 47.9 150.9 47.2 150.7 47.2 150.6 47.2 150.5 47.9 150.2 48.1 149.9 48.3 149.3 47.4 149 47.4 148.9 47.4 149.2 48 149.2 48.6 149.2 49.2 146.1 50.1 145.7 50.1 145 50.1 145 49.3 144.8 49.3 144.7 49.3 144.7 50.3 143.9 50.3 143.9 50.3 143.8 50.3 143.8 50.3 143.7 50.3 143.6 50.2 143.6 50.2 143.5 50.1 143.5 50.1 143.5 50 143.5 50 143.5 49.9 143.5 49.8V42.1C143.4 42 143.4 41.9 143.5 41.9 143.5 41.8 143.5 41.7 143.6 41.7 143.6 41.6 143.7 41.6 143.7 41.6 143.8 41.5 143.9 41.5 143.9 41.5 144.5 41.5 144.5 42.7 144.7 42.7 145 42.7 145.2 41.5 145.9 41.5 146.4 41.5 146.9 42.2 147.2 42.2 147.4 42.2 146.8 41.5 146.8 41.1 146.8 40.8 150 40.9 151.2 38.7H151.3ZM130.8 50.7C130.3 50.7 130 49.6 129.9 49.7 129.7 49.7 129.9 50.5 129.7 50.7 129.5 50.8 126.1 49.2 125.8 49 125.6 48.7 125.9 48.4 125.8 48.2 125.7 48 125.3 48.1 125.1 48 124.9 47.9 125.3 47.3 125.1 47.1 124.9 47 124.6 47.7 124.3 47.4 124.2 47.2 124.2 47 124.2 46.7 124.2 44.8 126.3 44 127.8 43.5 128.3 43.3 128.1 44 128.3 44 128.5 44.1 128.6 43.7 128.9 43.7 129.1 43.7 129.8 44 130 43.9 130.1 43.8 129.6 43.3 129.7 43.1 129.9 42.9 131.4 42.7 131.4 43.1V50C131.4 50.7 130.9 50.7 130.9 50.7H130.8ZM134.6 22.7C134.6 18.2 141.2 15.6 141.6 13.3 141.8 13.6 142 13.9 142.1 14.2 142.2 14.5 142.2 14.9 142.2 15.2 142.2 17.9 137.4 22.5 137.4 25.8 137.4 26.2 137.4 26.3 137.4 26.5 137.4 26.8 137.3 26.9 137.2 26.9 136.5 26.9 134.5 25.4 134.5 22.7L134.6 22.7ZM141.2 55.3C141.2 55.9 141 56.1 140.4 56L134.2 54.7C134.1 54.7 134.1 54.7 134 54.7 133.9 54.6 133.9 54.6 133.8 54.5 133.7 54.4 133.7 54.4 133.7 54.3 133.7 54.2 133.7 54.1 133.7 54.1V42.9C133.7 42.6 134.7 42.5 134.8 42.7 135.1 42.9 135 43.9 135.2 43.9 135.4 43.9 136.2 42.8 136.5 42.8 137.1 42.8 137.5 43.1 137.6 43 137.8 43 137.8 42.4 137.9 42.3 138.3 42.2 138.7 42.1 139.2 42.1 139.8 42.1 140.8 42 140.8 42 141.2 42 141.2 42.3 141.2 42.9L141.2 55.3ZM137.7 41.3C137.5 40.9 137.6 40.4 137.4 40.4 137.3 40.4 136.8 41.2 136.5 41.2 136.2 41.2 135.7 40.6 135.5 40.6 135.3 40.6 135.6 41.4 135.4 41.7 135.2 41.9 133.6 42.1 133.6 41.9V30.9C133.6 30.8 133.7 30.7 133.7 30.6 133.7 30.5 133.8 30.4 133.9 30.3 133.9 30.3 134 30.2 134.1 30.2 134.2 30.2 134.3 30.1 134.4 30.2H140.2C140.9 30.2 141.2 30.4 141.2 31.1V41C141.2 41.3 137.8 41.5 137.7 41.2L137.7 41.3ZM146.6 40.1C146.3 40 146.3 39.3 146.2 39.3 146 39.3 145.9 39.9 145.5 40 145.1 40.2 144.5 39.6 144.3 39.7 144.2 39.9 144.7 40.8 143.8 40.8 143.6 40.8 143.4 40.5 143.4 40.3V33.2C143.6 33.2 143.7 33.3 143.9 33.3 144.1 33.4 144.4 33.5 144.4 33.9 144.4 34.1 144.3 34.4 144.4 34.5 144.6 34.5 144.7 34.4 144.7 34.4 145.9 33.5 146.2 35.1 146.5 35.1 146.8 35.1 146.7 34 147 34 147.3 33.9 149.8 35.1 149.8 35.8 149.8 36 149.4 36 149.4 36.2 149.4 36.4 150 36.5 149.9 36.9 149.9 37.2 149.3 37.5 149.4 37.7 149.6 37.9 150.4 37.5 150.5 37.5 150.6 37.5 150.6 37.8 150.6 37.9 150.6 39.3 147.3 40.4 146.6 40.1M19.6 42.6H17.3V54.7H19.6V42.6ZM21.2 54.7V42.6H23.1L25.7 49.5H25.7V42.6H27.6V54.7H25.8L23.1 47.2H23.1V54.7H21.2ZM30.6 44.4H28.6V42.6H34.7V44.4H32.6V54.7H30.6V44.4ZM35.7 54.7V42.6H41.2V44.4H37.7V47.5H40.4V49.4H37.7V52.9H41.5V54.7H35.7ZM44.7 48.1H45.5C45.7 48.1 46 48 46.2 48 46.4 47.9 46.5 47.8 46.7 47.7 46.8 47.5 46.9 47.3 46.9 47.1 47 46.8 47 46.5 47 46.2 47.1 45.7 46.9 45.2 46.7 44.7 46.5 44.6 46.3 44.5 46.1 44.4 45.9 44.3 45.7 44.3 45.5 44.3H44.7V48.1ZM44.9 54.7H42.8V42.6H45.7C46.7 42.6 47.6 42.8 48.3 43.4 49 44 49.2 44.9 49.2 46.2 49.2 46.6 49.2 47 49.1 47.4 49 47.7 48.9 48 48.8 48.3 48.7 48.5 48.5 48.7 48.3 48.9 48.1 49 48 49.1 47.8 49.2L49.5 54.7H47.4L45.9 49.7C45.8 49.7 45.6 49.8 45.4 49.8H44.9L44.9 54.7ZM50.9 54.7V42.6H52.8L55.3 49.5H55.4V42.6H57.2V54.7H55.4L52.8 47.2H52.8V54.7H50.9ZM61.1 50.2H62.8L61.9 45H61.9L61.1 50.2ZM60.4 54.7H58.4L60.6 42.6H63.2L65.5 54.7H63.5L63.1 52H60.8L60.4 54.7ZM67.3 44.4H65.3V42.6H71.4V44.4H69.4V54.7H67.3V44.4ZM75 42.6H72.7V54.7H75V42.6ZM78.5 51.7C78.5 52.1 78.6 52.4 78.7 52.8 78.8 52.9 79 53 79.1 53 79.3 53.1 79.5 53.1 79.6 53.1 79.8 53.1 79.9 53.1 80.1 53 80.2 53 80.4 52.9 80.5 52.8 80.7 52.4 80.7 52.1 80.7 51.7V45.6C80.7 45.3 80.7 44.9 80.5 44.6 80.4 44.5 80.2 44.4 80.1 44.3 79.9 44.3 79.8 44.2 79.6 44.3 79.5 44.2 79.3 44.3 79.1 44.3 79 44.4 78.8 44.5 78.7 44.6 78.6 44.9 78.5 45.3 78.5 45.6V51.7ZM76.4 45.6C76.4 45.1 76.5 44.7 76.6 44.3 76.8 44 77 43.6 77.2 43.3 77.5 43 77.9 42.8 78.2 42.7 79.1 42.3 80.1 42.3 81.1 42.7 81.4 42.8 81.8 43 82 43.3 82.3 43.6 82.5 43.9 82.7 44.3 82.8 44.7 82.9 45.1 82.9 45.6V51.8C82.9 52.2 82.8 52.6 82.7 53 82.5 53.4 82.3 53.7 82 54 81.8 54.3 81.4 54.5 81.1 54.6 80.1 55 79.1 55 78.2 54.6 77.9 54.5 77.5 54.3 77.2 54 77 53.7 76.8 53.4 76.6 53 76.5 52.6 76.4 52.2 76.4 51.8V45.6ZM84.2 54.7V42.6H86.1L88.7 49.5H88.7V42.6H90.6V54.7H88.8L86.1 47.2H86.1V54.7H84.2ZM94.4 50.2H96.1L95.3 45H95.2L94.4 50.2ZM93.8 54.7H91.7L94 42.6H96.6L98.8 54.7H96.8L96.4 52H94.2L93.8 54.7ZM99.8 54.7V42.6H101.9V52.9H105.2V54.7H99.8Z"/>
  </g>
  <defs>
    <clipPath id="a">
      <path fill="#fff" d="M0 0H170V72H0z"/>
    </clipPath>
  </defs>
</svg>